<svg width="116" height="87" viewBox="0 0 116 87" fill="none" xmlns="http://www.w3.org/2000/svg">
<path d="M6.31963 31.3222C9.17079 27.6564 13.4249 25.8235 19.082 25.8235C24.7391 25.8235 28.9705 27.6338 31.7765 31.2543C34.5824 34.8748 35.9853 40.8713 35.9853 49.2438C35.9853 57.571 34.5597 63.477 31.7086 66.9618C28.9027 70.4013 24.6712 72.121 19.0141 72.121C13.4023 72.121 9.17079 70.4013 6.31963 66.9618C3.51372 63.5223 2.11076 57.6389 2.11076 49.3117C2.11076 40.9392 3.51372 34.9427 6.31963 31.3222ZM26.0741 36.142C24.6712 33.6529 22.3405 32.4084 19.082 32.4084C15.8235 32.4084 13.4702 33.6529 12.022 36.142C10.619 38.5859 9.91752 42.9079 9.91752 49.108C9.91752 55.3082 10.6416 59.6076 12.0898 62.0062C13.5833 64.3595 15.914 65.5362 19.082 65.5362C22.2952 65.5362 24.6033 64.3595 26.0062 62.0062C27.4544 59.6076 28.1786 55.3082 28.1786 49.108C28.1786 42.9079 27.4771 38.5859 26.0741 36.142ZM42.2016 71.3743V61.5988H50.1441V71.3743H42.2016Z" fill="#FEE644"/>
<path d="M115.998 49.1278H82.0853C77.4576 49.1278 73.6902 45.3603 73.6902 40.7326C73.6902 39.293 74.0603 37.8687 74.7571 36.618L95.2663 0H85.4265L67.2656 32.4294C66.8904 33.1007 66.5637 33.795 66.2829 34.5071V32.6157C66.2829 22.5921 58.1303 14.442 48.1092 14.442H47.877V23.0337H48.1092C53.398 23.0337 57.6989 27.3295 57.6989 32.6157V71.3089H66.2829V46.9454C68.7715 53.2449 74.9154 57.7169 82.0878 57.7169H107.416V68.228H116V49.1278H115.998Z" fill="#FEE644"/>
</svg>
